<svg id="svg" xmlns="http://www.w3.org/2000/svg" xmlns:xlink="http://www.w3.org/1999/xlink" width="400" height="146.51685393258427" viewBox="0, 0, 400,146.51685393258427"><g id="svgg"><path id="path0" d="M331.930 24.494 C 329.379 27.090,326.864 30.352,326.342 31.744 C 324.858 35.701,325.118 65.629,326.677 70.306 C 328.505 75.788,330.769 84.812,330.407 85.173 C 329.780 85.801,317.334 78.851,314.011 76.018 C 310.680 73.178,308.686 72.056,293.787 64.638 C 289.999 62.752,286.655 60.811,286.354 60.326 C 286.054 59.840,283.619 58.623,280.942 57.622 C 278.266 56.620,272.308 53.918,267.701 51.618 C 263.095 49.317,256.899 46.696,253.933 45.794 C 250.966 44.892,244.494 42.759,239.551 41.056 C 217.746 33.542,211.745 32.788,174.382 32.873 C 138.205 32.956,131.361 34.026,101.507 44.272 C 96.775 45.896,91.915 47.872,90.708 48.663 C 89.501 49.454,87.232 50.383,85.667 50.726 C 84.102 51.070,82.360 51.906,81.798 52.584 C 81.235 53.262,79.590 54.077,78.141 54.395 C 74.512 55.192,64.928 60.011,61.124 62.952 C 59.393 64.289,55.912 66.425,53.387 67.698 C 50.862 68.971,47.626 70.990,46.196 72.183 C 44.766 73.377,42.308 75.014,40.734 75.821 C 37.586 77.435,26.674 87.198,27.309 87.833 C 27.819 88.343,31.396 86.410,34.715 83.831 C 50.293 71.727,92.438 50.111,96.842 51.966 C 96.959 52.016,98.982 51.449,101.336 50.706 C 112.432 47.209,122.823 44.257,124.045 44.254 C 124.787 44.253,128.022 43.776,131.236 43.194 C 142.708 41.116,147.228 40.844,167.191 41.024 C 184.686 41.183,193.278 41.642,200.899 42.825 C 203.515 43.231,213.256 45.435,214.831 45.978 C 223.581 48.990,239.597 54.256,243.083 55.267 C 245.520 55.974,251.588 58.575,256.566 61.048 C 261.545 63.520,267.364 66.159,269.498 66.910 C 271.631 67.662,274.463 69.046,275.790 69.987 C 277.117 70.927,280.629 72.905,283.596 74.382 C 296.097 80.604,301.335 83.595,304.311 86.208 C 307.571 89.070,313.766 92.584,315.553 92.584 C 316.112 92.584,317.599 93.393,318.856 94.382 L 321.141 96.180 305.964 96.187 C 280.629 96.198,278.590 96.822,258.876 110.604 C 254.283 113.815,244.339 123.290,244.935 123.886 C 245.152 124.103,246.658 123.661,248.282 122.904 C 249.907 122.147,254.674 119.913,258.876 117.940 C 276.351 109.735,292.458 106.335,306.608 107.866 C 327.160 110.089,338.564 111.969,340.180 113.401 C 340.649 113.817,341.661 114.157,342.428 114.157 C 343.922 114.157,355.201 120.007,360.549 123.556 L 363.794 125.710 368.139 121.298 C 372.926 116.438,372.948 116.671,367.232 111.654 C 359.987 105.295,347.196 89.575,344.767 84.045 C 340.898 75.236,339.124 70.031,337.538 62.832 C 335.946 55.603,335.873 24.727,337.440 21.348 C 338.766 18.490,336.635 19.707,331.930 24.494 " stroke="none" fill="#000000" fill-rule="evenodd"></path></g></svg>